<?xml version="1.0" encoding="UTF-8" standalone="no"?>
<svg width="75px" height="32px" viewBox="0 0 75 32" version="1.1" xmlns="http://www.w3.org/2000/svg" xmlns:xlink="http://www.w3.org/1999/xlink">
    <!-- Generator: Sketch 39.1 (31720) - http://www.bohemiancoding.com/sketch -->
    <title>VNGRS</title>
    <desc>Created with Sketch.</desc>
    <defs></defs>
    <g id="Page-1" stroke="none" stroke-width="1" fill="none" fill-rule="evenodd">
        <path d="M4.156,0.188 L8.776,0.188 L6.06,16.204 L12.22,0.188 L16.952,0.188 L4.716,29 L0.208,29 L4.156,0.188 Z M16.196,29 L11.492,29 L18.576,4.92 L23.28,4.92 L16.196,29 Z M25.464,5.228 C25.6506676,4.5746634 25.3893369,4.248 24.68,4.248 L16.532,4.248 L19.108,0.188 L28.208,0.188 C29.2720053,0.188 30.0186645,0.50533016 30.448,1.14 C30.8773355,1.77466984 30.9520014,2.56799524 30.672,3.52 L23.168,29 L18.464,29 L25.464,5.228 Z M44.812,0.188 L43.58,4.248 L38.652,4.248 C38.3346651,4.248 38.0873342,4.30399944 37.91,4.416 C37.7326658,4.52800056 37.5973338,4.7706648 37.504,5.144 L31.988,23.848 C31.8759994,24.2586687 31.8993325,24.5433325 32.058,24.702 C32.2166675,24.8606675 32.5106645,24.94 32.94,24.94 L34.172,24.94 L37.168,14.804 L36.104,14.804 L37.42,10.66 L43.076,10.66 L37.84,28.496 L32.38,31.268 L33.052,29 L31.176,29 C30.5039966,29 29.8740029,28.902001 29.286,28.706 C28.6979971,28.509999 28.208002,28.1973355 27.816,27.768 C27.423998,27.3386645 27.1720006,26.7880034 27.06,26.116 C26.9479994,25.4439966 27.0319986,24.6320048 27.312,23.68 L33.444,2.876 C33.7613349,1.81199468 34.2419968,1.09800182 34.886,0.734 C35.5300032,0.36999818 36.3279952,0.188 37.28,0.188 L44.812,0.188 Z M51.224,13.544 C51.4853346,13.544 51.7186656,13.4740007 51.924,13.334 C52.1293344,13.1939993 52.2973327,12.9000022 52.428,12.452 L54.5,5.368 C54.7053344,4.6213296 54.4533369,4.248 53.744,4.248 L45.316,4.248 L47.892,0.188 L57.048,0.188 C58.1120053,0.188 58.839998,0.50533016 59.232,1.14 C59.624002,1.77466984 59.6800014,2.56799524 59.4,3.52 L56.236,14.104 C56.1053327,14.5333355 55.8626684,14.9206649 55.508,15.266 C55.1533316,15.6113351 54.6120036,15.784 53.884,15.784 C54.5560034,15.8400003 54.9619993,16.1666637 55.102,16.764 C55.2420007,17.3613363 55.1906679,18.0706626 54.948,18.892 L51.952,29 L47.248,29 L50.496,18.024 C50.570667,17.7626654 50.5613338,17.5573341 50.468,17.408 C50.3746662,17.2586659 50.1786682,17.184 49.88,17.184 L48.48,17.184 L44.98,29 L40.276,29 L47.36,4.92 L52.064,4.92 L49.544,13.544 L51.224,13.544 Z M66.904,12.928 C67.445336,12.928 67.9259979,13.0026659 68.346,13.152 C68.7660021,13.3013341 69.1019987,13.5393317 69.354,13.866 C69.6060013,14.1926683 69.7553331,14.6079975 69.802,15.112 C69.8486669,15.6160025 69.7693344,16.2226631 69.564,16.932 L66.708,26.648 C66.5586659,27.1520025 66.348668,27.5579985 66.078,27.866 C65.807332,28.1740015 65.5086683,28.4119992 65.182,28.58 C64.8553317,28.7480008 64.5100018,28.8599997 64.146,28.916 C63.7819982,28.9720003 63.4226684,29 63.068,29 L57.552,29 C56.7493293,29 56.1286689,28.7106696 55.69,28.132 C55.2513311,27.5533304 55.1719986,26.797338 55.452,25.864 L56.852,21.048 L61.304,21.048 L60.24,24.576 C60.165333,24.8186679 60.1839994,24.9726663 60.296,25.038 C60.4080006,25.1033337 60.5479992,25.136 60.716,25.136 L61.78,25.136 C62.0413346,25.136 62.2373327,25.0940004 62.368,25.01 C62.4986673,24.9259996 62.601333,24.7533346 62.676,24.492 L64.944,16.82 C64.9813335,16.7079994 64.9860001,16.614667 64.958,16.54 C64.9299999,16.465333 64.8226676,16.428 64.636,16.428 L58.224,16.428 L59.26,12.928 L66.904,12.928 Z M59.456,12.256 L62.312,2.596 C62.4613341,2.09199748 62.6573321,1.68133492 62.9,1.364 C63.1426679,1.04666508 63.4179985,0.79933422 63.726,0.622 C64.0340015,0.44466578 64.3653316,0.32800028 64.72,0.272 C65.0746684,0.21599972 65.4293316,0.188 65.784,0.188 L74.492,0.188 L72.168,8.14 L67.436,9.204 L69.004,3.912 L67.24,3.912 C66.9786654,3.912 66.7873339,3.95399958 66.666,4.038 C66.5446661,4.12200042 66.446667,4.29466536 66.372,4.556 L64.132,12.256 L59.456,12.256 Z" id="VNGRS" fill="#FFFFFF"></path>
    </g>
</svg>